<svg width="266" height="55" viewBox="0 0 266 55" fill="none" xmlns="http://www.w3.org/2000/svg">
<path d="M25.9597 1.42H35.3197V43H25.9597V25.36H10.2397V43H0.879682V1.42H10.2397V17.32H25.9597V1.42ZM52.8022 36.76C53.6822 36.76 54.5222 36.74 55.3222 36.7C56.1222 36.66 56.7622 36.6 57.2422 36.52V29.74C56.8822 29.66 56.3422 29.58 55.6222 29.5C54.9022 29.42 54.2422 29.38 53.6422 29.38C52.8022 29.38 52.0022 29.44 51.2422 29.56C50.5222 29.64 49.8822 29.82 49.3222 30.1C48.7622 30.38 48.3222 30.76 48.0022 31.24C47.6822 31.72 47.5222 32.32 47.5222 33.04C47.5222 34.44 47.9822 35.42 48.9022 35.98C49.8622 36.5 51.1622 36.76 52.8022 36.76ZM52.0822 10.6C54.7222 10.6 56.9222 10.9 58.6822 11.5C60.4422 12.1 61.8422 12.96 62.8822 14.08C63.9622 15.2 64.7222 16.56 65.1622 18.16C65.6022 19.76 65.8222 21.54 65.8222 23.5V42.1C64.5422 42.38 62.7622 42.7 60.4822 43.06C58.2022 43.46 55.4422 43.66 52.2022 43.66C50.1622 43.66 48.3022 43.48 46.6222 43.12C44.9822 42.76 43.5622 42.18 42.3622 41.38C41.1622 40.54 40.2422 39.46 39.6022 38.14C38.9622 36.82 38.6422 35.2 38.6422 33.28C38.6422 31.44 39.0022 29.88 39.7222 28.6C40.4822 27.32 41.4822 26.3 42.7222 25.54C43.9622 24.78 45.3822 24.24 46.9822 23.92C48.5822 23.56 50.2422 23.38 51.9622 23.38C53.1222 23.38 54.1422 23.44 55.0222 23.56C55.9422 23.64 56.6822 23.76 57.2422 23.92V23.08C57.2422 21.56 56.7822 20.34 55.8622 19.42C54.9422 18.5 53.3422 18.04 51.0622 18.04C49.5422 18.04 48.0422 18.16 46.5622 18.4C45.0822 18.6 43.8022 18.9 42.7222 19.3L41.5822 12.1C42.1022 11.94 42.7422 11.78 43.5022 11.62C44.3022 11.42 45.1622 11.26 46.0822 11.14C47.0022 10.98 47.9622 10.86 48.9622 10.78C50.0022 10.66 51.0422 10.6 52.0822 10.6ZM90.5262 27.46C90.5262 24.7 89.9062 22.5 88.6662 20.86C87.4262 19.18 85.5862 18.34 83.1462 18.34C82.3462 18.34 81.6062 18.38 80.9262 18.46C80.2462 18.5 79.6862 18.56 79.2462 18.64V34.78C79.8062 35.14 80.5262 35.44 81.4062 35.68C82.3262 35.92 83.2462 36.04 84.1662 36.04C88.4062 36.04 90.5262 33.18 90.5262 27.46ZM99.6462 27.22C99.6462 29.66 99.3462 31.88 98.7462 33.88C98.1462 35.88 97.2662 37.6 96.1062 39.04C94.9462 40.48 93.5062 41.6 91.7862 42.4C90.0662 43.2 88.0862 43.6 85.8462 43.6C84.6062 43.6 83.4462 43.48 82.3662 43.24C81.2862 43 80.2462 42.66 79.2462 42.22V54.1H70.3062V12.52C71.1062 12.28 72.0262 12.06 73.0662 11.86C74.1062 11.62 75.1862 11.42 76.3062 11.26C77.4662 11.1 78.6262 10.98 79.7862 10.9C80.9862 10.78 82.1262 10.72 83.2062 10.72C85.8062 10.72 88.1262 11.12 90.1662 11.92C92.2062 12.68 93.9262 13.78 95.3262 15.22C96.7262 16.62 97.7862 18.34 98.5062 20.38C99.2662 22.42 99.6462 24.7 99.6462 27.22ZM123.137 27.46C123.137 24.7 122.517 22.5 121.277 20.86C120.037 19.18 118.197 18.34 115.757 18.34C114.957 18.34 114.217 18.38 113.537 18.46C112.857 18.5 112.297 18.56 111.857 18.64V34.78C112.417 35.14 113.137 35.44 114.017 35.68C114.937 35.92 115.857 36.04 116.777 36.04C121.017 36.04 123.137 33.18 123.137 27.46ZM132.257 27.22C132.257 29.66 131.957 31.88 131.357 33.88C130.757 35.88 129.877 37.6 128.717 39.04C127.557 40.48 126.117 41.6 124.397 42.4C122.677 43.2 120.697 43.6 118.457 43.6C117.217 43.6 116.057 43.48 114.977 43.24C113.897 43 112.857 42.66 111.857 42.22V54.1H102.917V12.52C103.717 12.28 104.637 12.06 105.677 11.86C106.717 11.62 107.797 11.42 108.917 11.26C110.077 11.1 111.237 10.98 112.397 10.9C113.597 10.78 114.737 10.72 115.817 10.72C118.417 10.72 120.737 11.12 122.777 11.92C124.817 12.68 126.537 13.78 127.937 15.22C129.337 16.62 130.397 18.34 131.117 20.38C131.877 22.42 132.257 24.7 132.257 27.22ZM162.728 11.44C160.928 17.52 159.048 23.22 157.088 28.54C155.128 33.86 152.988 39.02 150.668 44.02C149.828 45.82 148.988 47.34 148.148 48.58C147.308 49.86 146.388 50.9 145.388 51.7C144.388 52.54 143.248 53.14 141.968 53.5C140.728 53.9 139.268 54.1 137.588 54.1C136.188 54.1 134.888 53.96 133.688 53.68C132.528 53.44 131.568 53.16 130.808 52.84L132.368 45.7C133.288 46.02 134.108 46.24 134.828 46.36C135.548 46.48 136.308 46.54 137.108 46.54C138.708 46.54 139.928 46.1 140.768 45.22C141.648 44.38 142.388 43.2 142.988 41.68C140.948 37.68 138.908 33.2 136.868 28.24C134.828 23.24 132.908 17.64 131.108 11.44H140.588C140.988 13 141.448 14.7 141.968 16.54C142.528 18.34 143.108 20.18 143.708 22.06C144.308 23.9 144.908 25.7 145.508 27.46C146.148 29.22 146.748 30.82 147.308 32.26C147.828 30.82 148.368 29.22 148.928 27.46C149.488 25.7 150.028 23.9 150.548 22.06C151.108 20.18 151.628 18.34 152.108 16.54C152.628 14.7 153.088 13 153.488 11.44H162.728ZM186.674 35.86C187.994 35.86 189.074 35.76 189.914 35.56C190.794 35.32 191.494 35.02 192.014 34.66C192.534 34.26 192.894 33.8 193.094 33.28C193.294 32.76 193.394 32.18 193.394 31.54C193.394 30.18 192.754 29.06 191.474 28.18C190.194 27.26 187.994 26.28 184.874 25.24C183.514 24.76 182.154 24.22 180.794 23.62C179.434 22.98 178.214 22.2 177.134 21.28C176.054 20.32 175.174 19.18 174.494 17.86C173.814 16.5 173.474 14.86 173.474 12.94C173.474 11.02 173.834 9.3 174.554 7.78C175.274 6.22 176.294 4.9 177.614 3.82C178.934 2.74 180.534 1.92 182.414 1.36C184.294 0.759998 186.414 0.459997 188.774 0.459997C191.574 0.459997 193.994 0.759998 196.034 1.36C198.074 1.96 199.754 2.62 201.074 3.34L198.374 10.72C197.214 10.12 195.914 9.6 194.474 9.16C193.074 8.68 191.374 8.44 189.374 8.44C187.134 8.44 185.514 8.76 184.514 9.4C183.554 10 183.074 10.94 183.074 12.22C183.074 12.98 183.254 13.62 183.614 14.14C183.974 14.66 184.474 15.14 185.114 15.58C185.794 15.98 186.554 16.36 187.394 16.72C188.274 17.04 189.234 17.38 190.274 17.74C192.434 18.54 194.314 19.34 195.914 20.14C197.514 20.9 198.834 21.8 199.874 22.84C200.954 23.88 201.754 25.1 202.274 26.5C202.794 27.9 203.054 29.6 203.054 31.6C203.054 35.48 201.694 38.5 198.974 40.66C196.254 42.78 192.154 43.84 186.674 43.84C184.834 43.84 183.174 43.72 181.694 43.48C180.214 43.28 178.894 43.02 177.734 42.7C176.614 42.38 175.634 42.04 174.794 41.68C173.994 41.32 173.314 40.98 172.754 40.66L175.394 33.22C176.634 33.9 178.154 34.52 179.954 35.08C181.794 35.6 184.034 35.86 186.674 35.86ZM232.996 41.92C231.476 42.36 229.516 42.76 227.116 43.12C224.716 43.52 222.196 43.72 219.556 43.72C216.876 43.72 214.636 43.36 212.836 42.64C211.076 41.92 209.676 40.92 208.636 39.64C207.596 38.32 206.856 36.76 206.416 34.96C205.976 33.16 205.756 31.18 205.756 29.02V11.44H214.696V27.94C214.696 30.82 215.076 32.9 215.836 34.18C216.596 35.46 218.016 36.1 220.096 36.1C220.736 36.1 221.416 36.08 222.136 36.04C222.856 35.96 223.496 35.88 224.056 35.8V11.44H232.996V41.92ZM237.788 12.52C239.308 12.08 241.268 11.68 243.668 11.32C246.068 10.92 248.588 10.72 251.228 10.72C253.908 10.72 256.128 11.08 257.888 11.8C259.688 12.48 261.108 13.46 262.148 14.74C263.188 16.02 263.928 17.54 264.368 19.3C264.808 21.06 265.028 23.02 265.028 25.18V43H256.088V26.26C256.088 23.38 255.708 21.34 254.948 20.14C254.188 18.94 252.768 18.34 250.688 18.34C250.048 18.34 249.368 18.38 248.648 18.46C247.928 18.5 247.288 18.56 246.728 18.64V43H237.788V12.52Z" fill="url(#paint0_linear)"/>
<defs>
<linearGradient id="paint0_linear" x1="132.5" y1="-19" x2="132.5" y2="61" gradientUnits="userSpaceOnUse">
<stop stop-color="#F9E000"/>
<stop offset="1" stop-color="#FFC700"/>
</linearGradient>
</defs>
</svg>
